<svg id="Capa_1" enable-background="new 0 0 510 510" height="512" viewBox="0 0 510 510" width="512" xmlns="http://www.w3.org/2000/svg" xmlns:xlink="http://www.w3.org/1999/xlink"><linearGradient id="lg1"><stop offset="0" stop-color="#ffdcbd"/><stop offset="1" stop-color="#ffa9b1"/></linearGradient><linearGradient id="SVGID_1_" gradientUnits="userSpaceOnUse" x1="377.059" x2="377.059" xlink:href="#lg1" y1="156.274" y2="258.543"/><linearGradient id="lg2"><stop offset="0" stop-color="#fe99a0"/><stop offset="1" stop-color="#fd4755"/></linearGradient><linearGradient id="SVGID_2_" gradientUnits="userSpaceOnUse" x1="447.243" x2="438.556" xlink:href="#lg2" y1="281.302" y2="319.091"/><linearGradient id="SVGID_3_" gradientUnits="userSpaceOnUse" x1="345.612" x2="336.925" xlink:href="#lg2" y1="133.113" y2="170.902"/><linearGradient id="lg3"><stop offset="0" stop-color="#c1e9af"/><stop offset="1" stop-color="#4fc123"/></linearGradient><linearGradient id="SVGID_4_" gradientTransform="matrix(.867 -.024 -.303 .769 -247.488 -86.537)" gradientUnits="userSpaceOnUse" x1="910.889" x2="898.572" xlink:href="#lg3" y1="415.821" y2="426.969"/><linearGradient id="SVGID_5_" gradientTransform="matrix(1.057 .32 -.124 1.098 2.718 192.04)" gradientUnits="userSpaceOnUse" x1="375.275" x2="341.078" y1="-83.854" y2="-49.658"><stop offset="0" stop-color="#ca6e59"/><stop offset="1" stop-color="#883f2e"/></linearGradient><linearGradient id="SVGID_6_" gradientTransform="matrix(.867 -.024 -.303 .769 -247.488 -86.537)" gradientUnits="userSpaceOnUse" x1="900.221" x2="881.656" xlink:href="#lg3" y1="432.642" y2="449.445"/><linearGradient id="SVGID_7_" gradientUnits="userSpaceOnUse" x1="364.29" x2="364.29" xlink:href="#lg1" y1="156.274" y2="258.543"/><linearGradient id="SVGID_8_" gradientUnits="userSpaceOnUse" x1="147.364" x2="350.194" xlink:href="#lg1" y1="200.125" y2="402.955"/><linearGradient id="lg4"><stop offset="0" stop-color="#f82814" stop-opacity="0"/><stop offset=".2454" stop-color="#f12817" stop-opacity=".245"/><stop offset=".6052" stop-color="#dd2820" stop-opacity=".605"/><stop offset="1" stop-color="#c0272d"/></linearGradient><linearGradient id="SVGID_9_" gradientTransform="matrix(-.768 -.64 .64 -.768 -166.092 -251.201)" gradientUnits="userSpaceOnUse" x1="-582.467" x2="-559.69" xlink:href="#lg4" y1="-34.165" y2="-2.588"/><linearGradient id="SVGID_10_" gradientTransform="matrix(-.768 -.64 .64 -.768 -166.092 -251.201)" gradientUnits="userSpaceOnUse" x1="-566.847" x2="-548.866" xlink:href="#lg4" y1="-54.106" y2="-29.178"/><linearGradient id="SVGID_11_" gradientTransform="matrix(-.768 -.64 .64 -.768 -166.092 -251.201)" gradientUnits="userSpaceOnUse" x1="-593.113" x2="-582.272" xlink:href="#lg4" y1="-54.804" y2="-39.775"/><linearGradient id="SVGID_12_" gradientTransform="matrix(-.811 .585 -.585 -.811 -3420.321 1046.657)" gradientUnits="userSpaceOnUse" x1="-3307.84" x2="-3285.063" xlink:href="#lg4" y1="-1503.708" y2="-1472.132"/><linearGradient id="SVGID_13_" gradientTransform="matrix(-.811 .585 -.585 -.811 -3420.321 1046.657)" gradientUnits="userSpaceOnUse" x1="-3292.219" x2="-3274.238" xlink:href="#lg4" y1="-1523.65" y2="-1498.722"/><linearGradient id="SVGID_14_" gradientTransform="matrix(-.811 .585 -.585 -.811 -3420.321 1046.657)" gradientUnits="userSpaceOnUse" x1="-3318.485" x2="-3307.645" xlink:href="#lg4" y1="-1524.348" y2="-1509.319"/><linearGradient id="SVGID_15_" gradientTransform="matrix(-.035 -.999 .999 -.035 542.473 -534.695)" gradientUnits="userSpaceOnUse" x1="-697.18" x2="-680.35" xlink:href="#lg4" y1="-282.868" y2="-259.535"/><linearGradient id="SVGID_16_" gradientTransform="matrix(-.035 -.999 .999 -.035 542.473 -534.695)" gradientUnits="userSpaceOnUse" x1="-685.638" x2="-672.351" xlink:href="#lg4" y1="-297.603" y2="-279.183"/><linearGradient id="SVGID_17_" gradientTransform="matrix(-.035 -.999 .999 -.035 542.473 -534.695)" gradientUnits="userSpaceOnUse" x1="-705.047" x2="-697.037" xlink:href="#lg4" y1="-298.119" y2="-287.014"/><linearGradient id="SVGID_18_" gradientTransform="matrix(-.035 -.999 .999 -.035 542.473 -534.695)" gradientUnits="userSpaceOnUse" x1="-888.364" x2="-871.534" xlink:href="#lg4" y1="-160.803" y2="-137.47"/><linearGradient id="SVGID_19_" gradientTransform="matrix(-.035 -.999 .999 -.035 542.473 -534.695)" gradientUnits="userSpaceOnUse" x1="-876.822" x2="-863.535" xlink:href="#lg4" y1="-175.538" y2="-157.118"/><linearGradient id="SVGID_20_" gradientTransform="matrix(-.035 -.999 .999 -.035 542.473 -534.695)" gradientUnits="userSpaceOnUse" x1="-896.231" x2="-888.22" xlink:href="#lg4" y1="-176.054" y2="-164.948"/><linearGradient id="lg5"><stop offset="0" stop-color="#ffa9b1" stop-opacity="0"/><stop offset="1" stop-color="#f89580"/></linearGradient><linearGradient id="SVGID_21_" gradientUnits="userSpaceOnUse" x1="292.2" x2="292.2" xlink:href="#lg5" y1="319.065" y2="372.057"/><linearGradient id="SVGID_22_" gradientUnits="userSpaceOnUse" x1="378.337" x2="176.181" xlink:href="#lg5" y1="467.421" y2="265.265"/><linearGradient id="lg6"><stop offset="0" stop-color="#eef5f6"/><stop offset="1" stop-color="#cbe5e8"/></linearGradient><linearGradient id="SVGID_23_" gradientUnits="userSpaceOnUse" x1="336.358" x2="336.358" xlink:href="#lg6" y1="376.723" y2="413.752"/><linearGradient id="lg7"><stop offset="0" stop-color="#cbe5e8" stop-opacity="0"/><stop offset="1" stop-color="#7ca1b1"/></linearGradient><linearGradient id="SVGID_24_" gradientUnits="userSpaceOnUse" x1="360.146" x2="247.044" xlink:href="#lg7" y1="384.548" y2="384.548"/><linearGradient id="SVGID_25_" gradientUnits="userSpaceOnUse" x1="280.574" x2="280.574" xlink:href="#lg6" y1="207.593" y2="365.434"/><linearGradient id="SVGID_26_" gradientUnits="userSpaceOnUse" x1="336.5" x2="228.093" xlink:href="#lg7" y1="286.518" y2="286.518"/><linearGradient id="SVGID_27_" gradientUnits="userSpaceOnUse" x1="55.086" x2="222.22" xlink:href="#lg6" y1="189.911" y2="357.045"/><linearGradient id="SVGID_28_" gradientUnits="userSpaceOnUse" x1="143.836" x2="143.836" xlink:href="#lg7" y1="368.65" y2="401.581"/><linearGradient id="SVGID_29_" gradientUnits="userSpaceOnUse" x1="143.836" x2="143.836" y1="412.303" y2="449.333"><stop offset="0" stop-color="#537983"/><stop offset="1" stop-color="#3e5959"/></linearGradient><linearGradient id="lg8"><stop offset="0" stop-color="#cbe5e8"/><stop offset="1" stop-color="#8ebac5"/></linearGradient><linearGradient id="SVGID_30_" gradientUnits="userSpaceOnUse" x1="92.736" x2="92.736" xlink:href="#lg8" y1="70.567" y2="151.634"/><linearGradient id="SVGID_31_" gradientUnits="userSpaceOnUse" x1="143.836" x2="143.836" xlink:href="#lg8" y1="70.567" y2="151.634"/><linearGradient id="SVGID_32_" gradientUnits="userSpaceOnUse" x1="194.935" x2="194.935" xlink:href="#lg8" y1="70.567" y2="151.634"/><g><g><g><path d="m491.529 322.96-131.916-199.878c-8.006-12.128-20.928-18.157-33.828-18.101h-69.927v280.457h202.036c32.102 0 51.315-35.69 33.635-62.478z" fill="url(#SVGID_1_)"/><circle cx="441.52" cy="306.2" fill="url(#SVGID_2_)" r="31.151"/><circle cx="339.888" cy="158.011" fill="url(#SVGID_3_)" r="31.151"/><path d="m341.865 138.742c-21.284 13.22 85.35 184.894 106.633 171.674 3.67-2.279 3.535-9.272.691-19.213-1.033-3.611-1.374-7.322-.921-10.883l.048-.382c.984-7.742-2.471-15.92-8.847-20.945l-.005-.004c-5.447-4.292-8.829-10.942-9.023-17.739l-.018-.647c-.214-7.495-4.348-14.737-10.732-18.801l-.488-.311c-5.863-3.733-9.866-10.175-10.614-17.085l-.063-.579c-.815-7.524-5.476-14.439-12.1-17.952l-.693-.368c-5.974-3.168-10.396-9.133-11.777-15.885-1.618-7.914-7.379-14.631-14.723-17.168l-.494-.171c-3.392-1.172-6.568-3.122-9.347-5.648-7.649-6.953-13.857-10.173-17.527-7.893z" fill="url(#SVGID_4_)"/><path d="m454.476 360 6.342-4.172c9.177-6.037 12.356-18.761 7.615-30.929-10.609-27.229-30.987-65.269-57.403-105.429s-53.279-73.934-74.082-94.458c-9.296-9.171-22.239-11.291-31.416-5.254l-6.342 4.172c-4.55 2.993-4.34 10.434.448 14.75 21.533 19.412 51.473 56.18 80.869 100.868s51.303 86.741 60.602 114.2c2.068 6.105 8.817 9.245 13.367 6.252z" fill="url(#SVGID_5_)"/><path d="m290.018 114.99c-32.08 19.926 128.644 278.683 160.724 258.757 5.531-3.436 5.327-13.975 1.042-28.959-1.557-5.443-2.07-11.037-1.388-16.404l.073-.576c1.483-11.669-3.724-23.996-13.334-31.569l-.007-.006c-8.21-6.469-13.308-16.492-13.601-26.737l-.028-.975c-.323-11.297-6.553-22.212-16.176-28.338l-.735-.468c-8.837-5.626-14.87-15.336-15.998-25.752l-.095-.873c-1.228-11.341-8.253-21.763-18.238-27.059l-1.045-.554c-9.004-4.775-15.669-13.766-17.751-23.942-2.439-11.928-11.122-22.052-22.191-25.877l-.745-.257c-5.113-1.767-9.9-4.706-14.089-8.514-11.53-10.479-20.887-15.332-26.418-11.897z" fill="url(#SVGID_6_)"/><path d="m462.716 349.316-150.516-226.234c-8.006-12.128-20.928-18.157-33.828-18.101h-22.514v280.457h187.176c32.101 0 37.363-9.334 19.682-36.122z" fill="url(#SVGID_7_)"/><path d="m224.789 123.081-131.917 199.874c-17.68 26.789 1.532 62.487 33.629 62.487h263.833c32.097 0 51.309-35.699 33.629-62.487l-131.917-199.874c-15.926-24.13-51.331-24.13-67.257 0z" fill="url(#SVGID_8_)"/><g opacity=".6"><g><circle cx="260.411" cy="135.397" fill="url(#SVGID_9_)" r="8.226"/><circle cx="235.462" cy="143.35" fill="url(#SVGID_10_)" r="6.494"/><circle cx="254.921" cy="164.615" fill="url(#SVGID_11_)" r="3.915"/></g><g><circle cx="130.705" cy="329.505" fill="url(#SVGID_12_)" r="8.226"/><circle cx="132.187" cy="355.649" fill="url(#SVGID_13_)" r="6.494"/><circle cx="157.632" cy="342.105" fill="url(#SVGID_14_)" r="3.915"/></g><g><circle cx="291.609" cy="166.329" fill="url(#SVGID_15_)" r="6.078"/><circle cx="274.938" cy="156.506" fill="url(#SVGID_16_)" r="4.798"/><circle cx="272.814" cy="177.7" fill="url(#SVGID_17_)" r="2.893"/></g><g><circle cx="420.323" cy="353.101" fill="url(#SVGID_18_)" r="6.078"/><circle cx="403.651" cy="343.279" fill="url(#SVGID_19_)" r="4.798"/><circle cx="401.527" cy="364.473" fill="url(#SVGID_20_)" r="2.893"/></g></g></g><path d="m92.872 322.955c-17.68 26.788 1.532 62.487 33.629 62.487h263.833c.04 0 .079-.004.12-.004h67.441c32.102 0 51.315-35.69 33.635-62.478l-23.825-36.099h-351.01z" fill="url(#SVGID_21_)"/></g><path d="m477.541 380.388-150.144-150.143c-10.187-12.293-25.366-20.294-42.397-20.896l-22.924-22.875c-5.375-7.805-14.369-12.926-24.563-12.926h-46.033l-98.608 149.407c-17.68 26.789 1.532 62.488 33.629 62.488l331.393-.004c7.317-.001 13.953-1.871 19.647-5.051z" fill="url(#SVGID_22_)"/><path d="m482.368 403.852h-292.021c-15.261 0-27.632-12.371-27.632-27.632 0-6.062 4.915-10.977 10.977-10.977h325.331c6.062 0 10.977 4.915 10.977 10.977 0 15.261-12.371 27.632-27.632 27.632z" fill="url(#SVGID_23_)"/><path d="m482.368 403.852h-292.021c-15.261 0-27.632-12.371-27.632-27.632 0-6.062 4.915-10.977 10.977-10.977h325.331c6.062 0 10.977 4.915 10.977 10.977 0 15.261-12.371 27.632-27.632 27.632z" fill="url(#SVGID_24_)"/><g><path d="m281.237 365.434h-59.048v-39.744h59.048c9.914 0 17.98-8.065 17.98-17.979v-42.394c0-9.914-8.066-17.98-17.98-17.98h-59.048v-39.744h59.048c31.829 0 57.724 25.895 57.724 57.724v42.394c-.001 31.828-25.895 57.723-57.724 57.723z" fill="url(#SVGID_25_)"/><path d="m338.956 281.396v26.311c0 31.829-25.89 57.731-57.72 57.731h-59.048v-39.744h59.048c9.913 0 17.976-8.074 17.976-17.987v-42.39c0-9.913-8.062-17.976-17.976-17.976h-59.048v-39.744h43.321l-.17.182z" fill="url(#SVGID_26_)"/><g><path d="m184.713 415.408h-81.755c-44.682 0-80.904-36.222-80.904-80.904v-132.852c0-16.462 13.345-29.807 29.807-29.807h183.949c16.462 0 29.807 13.345 29.807 29.807v132.852c0 44.682-36.222 80.904-80.904 80.904z" fill="url(#SVGID_27_)"/><path d="m22.104 336.477c1.051 43.767 36.833 78.931 80.854 78.931h81.755c44.02 0 79.803-35.163 80.854-78.931z" fill="url(#SVGID_28_)"/></g><path d="m260.04 439.433h-232.408c-15.261 0-27.632-12.371-27.632-27.632 0-6.062 4.915-10.977 10.977-10.977h265.718c6.062 0 10.977 4.915 10.977 10.977-.001 15.261-12.372 27.632-27.632 27.632z" fill="url(#SVGID_29_)"/><g><path d="m83.942 151.634c-2.976 0-5.952-1.135-8.223-3.406-4.541-4.541-4.541-11.904 0-16.445l11.961-11.961c2.977-2.977 2.977-7.821 0-10.798-9.663-9.663-9.663-25.387 0-35.051 4.541-4.541 11.903-4.541 16.445 0 4.541 4.541 4.541 11.904 0 16.445-.596.595-.596 1.565 0 2.16 12.045 12.045 12.045 31.644 0 43.689l-11.961 11.961c-2.27 2.27-5.246 3.406-8.222 3.406z" fill="url(#SVGID_30_)"/><path d="m135.041 151.634c-2.976 0-5.952-1.135-8.223-3.406-4.541-4.541-4.541-11.904 0-16.445l11.961-11.961c2.977-2.977 2.977-7.821 0-10.798-9.663-9.663-9.663-25.387 0-35.051 4.541-4.541 11.903-4.541 16.445 0 4.541 4.541 4.541 11.904 0 16.445-.596.595-.596 1.565 0 2.16 12.045 12.045 12.045 31.644 0 43.689l-11.961 11.961c-2.27 2.27-5.246 3.406-8.222 3.406z" fill="url(#SVGID_31_)"/><path d="m186.141 151.634c-2.976 0-5.952-1.135-8.223-3.406-4.541-4.541-4.541-11.904 0-16.445l11.961-11.961c2.977-2.977 2.977-7.821 0-10.798-9.663-9.663-9.663-25.387 0-35.051 4.541-4.541 11.903-4.541 16.445 0 4.541 4.541 4.541 11.904 0 16.445-.596.595-.596 1.565 0 2.16 12.045 12.045 12.045 31.644 0 43.689l-11.961 11.961c-2.27 2.27-5.246 3.406-8.222 3.406z" fill="url(#SVGID_32_)"/></g></g></g></svg>